<?xml version="1.0" encoding="UTF-8"?>
<svg version="1.1" xmlns="http://www.w3.org/2000/svg" width="893" height="893">
<path d="M0 0 C43.44478206 -0.53336228 81.73803251 15.53612788 113.8125 44.33984375 C115.4375 46.08203125 115.4375 46.08203125 115.4375 48.08203125 C116.0975 48.08203125 116.7575 48.08203125 117.4375 48.08203125 C144.87378446 73.11864068 158.67731173 114.38504171 160.56298828 150.484375 C162.15626899 190.51655363 149.04023818 231.3582347 121.75 261.14453125 C119.4375 263.08203125 119.4375 263.08203125 115.4375 263.08203125 C112.08406921 259.72860046 113.92780068 249.06632142 113.90527344 244.37231445 C114.0291248 234.09707458 115.4738846 227.58115342 121.4375 219.08203125 C137.38749363 190.72043849 141.02085567 155.09313319 132.83544922 123.77880859 C128.177676 107.27249766 120.54315556 92.50783366 110.2578125 78.83203125 C109.46141357 77.77242187 109.46141357 77.77242187 108.64892578 76.69140625 C108.04927002 75.89476562 108.04927002 75.89476562 107.4375 75.08203125 C107.23158263 126.17520592 107.07295502 177.26833873 106.97791203 228.3618466 C106.96665543 234.39137823 106.95500655 240.42090904 106.94311523 246.45043945 C106.94075444 247.65083042 106.93839365 248.85122138 106.93596131 250.08798783 C106.89677984 269.53469741 106.82580797 288.98116799 106.74312484 308.42773569 C106.65901539 328.37586349 106.60898249 348.32386596 106.59070355 368.27216381 C106.57834304 380.58539807 106.53927917 392.89795684 106.4662518 405.21098321 C106.41874489 413.64999005 106.40428382 422.08864677 106.4159876 430.52777768 C106.42176293 435.39987453 106.4127985 440.27078964 106.36465073 445.14267731 C106.32089578 449.60257503 106.31860764 454.06049516 106.34940995 458.52048337 C106.35321729 460.13436514 106.34175714 461.74836959 106.31355136 463.36200935 C105.93115963 471.95173913 105.93115963 471.95173913 109.37288868 479.48500621 C111.64629481 481.25379688 113.95469586 482.63197664 116.4375 484.08203125 C121.82811297 489.00869437 123.89168424 494.89016625 124.828125 502.08203125 C125.11993528 510.08597039 123.70910457 517.626023 118.89453125 524.18359375 C112.33772216 531.23553946 105.02809173 533.81151875 95.5625 534.26953125 C86.44333886 534.06227759 80.34107968 530.93293743 73.4375 525.08203125 C66.70122368 517.58520761 66.73201992 508.5863991 67.23779297 499.06982422 C67.92675579 492.21220161 71.74717102 486.8867585 76.4375 482.08203125 C80.7375 479.08203125 80.7375 479.08203125 83.4375 479.08203125 C83.4832426 424.88024049 83.51850148 370.67845168 83.53963066 316.47664542 C83.54213218 310.08273754 83.54472081 303.6888297 83.54736328 297.29492188 C83.5478879 296.02196922 83.54841252 294.74901657 83.54895304 293.4374896 C83.557664 272.80550004 83.57343777 252.17352159 83.59180559 231.54153863 C83.61048543 210.38316782 83.62161266 189.22480285 83.62567699 168.06642413 C83.62842603 155.00261551 83.6371196 141.93883827 83.65333293 128.87503931 C83.66387618 119.92592459 83.66710668 110.97682618 83.66450275 102.0277057 C83.6632173 96.85870846 83.66523632 91.6897662 83.67591095 86.52077866 C83.68560285 81.79332628 83.68616147 77.06596616 83.67929779 72.33850965 C83.67844877 70.62377772 83.68102015 68.90904016 83.68726636 67.1943194 C83.69523791 64.87183937 83.69099975 62.54969678 83.68359566 60.22722244 C83.6843551 58.93465444 83.68511454 57.64208643 83.68589699 56.3103497 C83.44972855 53.24096091 83.16787763 51.58605238 81.4375 49.08203125 C78.57092576 46.95568233 78.57092576 46.95568233 75.1875 45.01953125 C74.06859375 44.34792969 72.9496875 43.67632812 71.796875 42.984375 C68.71998336 41.24199566 65.60545174 39.65020617 62.4375 38.08203125 C62.38195688 80.78436468 62.36836122 123.48652828 62.41115963 166.18888209 C62.41617437 171.22829743 62.42084118 176.26771304 62.42529297 181.30712891 C62.4261851 182.31040161 62.42707723 183.31367431 62.4279964 184.34734921 C62.44161874 200.60019658 62.42704518 216.8529029 62.40208304 233.10573156 C62.37710307 249.77803737 62.38235026 266.45013526 62.41575909 283.12242734 C62.43542481 293.41335205 62.43140826 303.70371141 62.39726371 313.99460058 C62.37611801 321.04791009 62.38428753 328.10080284 62.41565877 335.15407284 C62.43289921 339.22597786 62.43707121 343.29680954 62.40648079 347.36865997 C62.37876041 351.09641967 62.38783263 354.82220892 62.42624104 358.54985707 C62.43713335 360.53773037 62.40858953 362.52569875 62.37867641 364.51337683 C62.32061651 370.79015378 62.32061651 370.79015378 65.16650391 376.11501193 C67.22813589 377.72125309 67.22813589 377.72125309 69.39306641 378.88934171 C74.01312668 381.58461026 77.27581843 386.26649955 79.4375 391.08203125 C81.74449786 400.54072246 81.1334007 409.52408137 76.4375 418.08203125 C72.74846666 423.83423217 67.85608968 427.71677114 61.4375 430.08203125 C49.89075641 432.43756694 41.27185017 430.1732836 31.4375 424.08203125 C31.4375 423.42203125 31.4375 422.76203125 31.4375 422.08203125 C30.7775 422.08203125 30.1175 422.08203125 29.4375 422.08203125 C23.80932283 415.46170746 22.07286779 408.02471673 22.625 399.51953125 C23.74270492 390.50254104 26.67276844 384.3083454 33.4375 378.08203125 C34.28928823 377.66975885 35.14107646 377.25748644 36.01867646 376.83272094 C38.68126585 375.30560068 38.68126585 375.30560068 39.05849248 372.49087363 C39.05659388 371.44094692 39.05469528 370.39102021 39.05273914 369.30927753 C39.06767201 367.49243551 39.06767201 367.49243551 39.08290654 365.63888961 C39.06864043 364.28784485 39.05391243 362.93680491 39.03877258 361.58576965 C39.04095177 360.15599471 39.04532749 358.7262217 39.05171841 357.29645938 C39.06293164 353.35803878 39.04285438 349.42029433 39.01782811 345.48195994 C38.99628913 341.23861904 39.00353887 336.99531803 39.00733948 332.75193787 C39.00996464 325.39688351 38.99424187 318.04205046 38.96615028 310.68705177 C38.9255608 300.05292193 38.91249774 289.41889939 38.90621033 278.78470048 C38.89525998 261.53259442 38.86196572 244.2806064 38.81469727 227.02856445 C38.76882082 210.26717724 38.73341954 193.50582206 38.7121582 176.74438477 C38.71084459 175.71167247 38.70953097 174.67896017 38.70817754 173.61495356 C38.70165248 168.43427701 38.69533391 163.25360023 38.68911803 158.0729233 C38.63726197 115.07587752 38.54917656 72.07896047 38.4375 29.08203125 C30.48797454 26.96779575 22.57170754 25.30793132 14.4375 24.08203125 C14.4963393 59.06439122 14.57085404 94.0466807 14.66648628 129.02895959 C14.67775488 133.15594346 14.68889326 137.28292767 14.69995117 141.40991211 C14.7032567 142.64236031 14.7032567 142.64236031 14.706629 143.89970645 C14.74203222 157.21548112 14.76687926 170.53125573 14.78784702 183.84706006 C14.80958502 197.50331218 14.8426163 211.15950305 14.88620156 224.81570309 C14.91275287 233.24699029 14.93042257 241.67820113 14.93684604 250.10952809 C14.94208932 255.88580786 14.9582704 261.66199143 14.98316566 267.4382197 C14.99721744 270.77429476 15.0047206 274.11004939 15.00250816 277.44617653 C15.00086847 281.05805664 15.01744322 284.66939771 15.03877258 288.28120422 C15.03392501 289.34247648 15.02907743 290.40374874 15.02408296 291.49718076 C15.0335395 292.46108769 15.04299604 293.42499462 15.05273914 294.41811085 C15.05463775 295.25235641 15.05653635 296.08660198 15.05849248 296.94612771 C15.52655144 299.58388223 16.36408439 300.43975454 18.4375 302.08203125 C19.08460938 302.38625 19.73171875 302.69046875 20.3984375 303.00390625 C25.22222608 305.55441516 28.55309945 311.19263007 30.8125 316.01953125 C32.77976303 325.65912009 33.29826197 334.60731792 28.1875 343.39453125 C25.71928111 346.97093004 23.00719167 349.56224889 19.4375 352.08203125 C18.91027344 352.47519531 18.38304687 352.86835937 17.83984375 353.2734375 C11.12778607 357.50719696 3.03183967 356.93089956 -4.5625 356.08203125 C-12.46068973 353.92609494 -18.00582495 348.74767101 -22.5625 342.08203125 C-26.60671727 334.42933729 -26.81910055 325.46418689 -24.3125 317.26953125 C-21.63840412 310.27189718 -17.79041691 305.71052929 -11.43798804 301.76122111 C-9.38518809 300.24582489 -9.38518809 300.24582489 -9.05929399 297.93971568 C-9.0577751 297.10243236 -9.05625622 296.26514903 -9.05469131 295.40249348 C-9.04324373 294.43510315 -9.03179614 293.46771283 -9.02000165 292.47100765 C-9.02776207 291.40584444 -9.03552248 290.34068123 -9.04351807 289.24324036 C-9.03601681 288.11361663 -9.02851556 286.9839929 -9.020787 285.82013816 C-9.00040246 282.01508092 -9.00863392 278.21061347 -9.01660156 274.40551758 C-9.01009069 271.68587904 -8.99756489 268.96627608 -8.98527527 266.24665833 C-8.9619304 260.38133455 -8.95321616 254.51613451 -8.95438385 248.65076637 C-8.95605107 240.1704158 -8.93573904 231.69023049 -8.91002855 223.20992395 C-8.86891552 209.45188769 -8.84562653 195.6938811 -8.83349609 181.93579102 C-8.8216731 168.56955106 -8.80148701 155.20336698 -8.77001953 141.8371582 C-8.76808343 141.01353559 -8.76614733 140.18991299 -8.76415256 139.34133212 C-8.75438819 135.20954002 -8.74445904 131.07774833 -8.73444796 126.94595683 C-8.65158357 92.65800637 -8.59762454 58.37006309 -8.5625 24.08203125 C-9.18294189 24.20320313 -9.80338379 24.324375 -10.44262695 24.44921875 C-13.25286469 24.99637727 -16.06391343 25.53925132 -18.875 26.08203125 C-19.85146484 26.2728125 -20.82792969 26.46359375 -21.83398438 26.66015625 C-22.77177734 26.840625 -23.70957031 27.02109375 -24.67578125 27.20703125 C-25.53985596 27.37460938 -26.40393066 27.5421875 -27.29418945 27.71484375 C-29.5625 28.08203125 -29.5625 28.08203125 -32.5625 28.08203125 C-32.64092148 72.05829629 -32.67214492 116.03437417 -32.63990569 160.01070479 C-32.63614169 165.20033294 -32.63276919 170.38996128 -32.62963867 175.57958984 C-32.62900885 176.61276869 -32.62837903 177.64594754 -32.62773012 178.71043484 C-32.61846087 195.44829298 -32.64092115 212.18596621 -32.67506976 228.92378564 C-32.70939426 246.09330183 -32.70970853 263.26257468 -32.67832941 280.43209779 C-32.66003592 291.03017364 -32.66839598 301.62754475 -32.71065276 312.22555499 C-32.7370753 319.48913615 -32.73051686 326.75221679 -32.69784261 334.01577075 C-32.67995824 338.20928633 -32.67678852 342.40147683 -32.71272469 346.59490585 C-32.74530233 350.43383638 -32.73649734 354.27035889 -32.69465785 358.10917906 C-32.68684319 359.49824086 -32.69426729 360.88748866 -32.71840347 362.27636273 C-33.04962261 369.83004234 -33.04962261 369.83004234 -29.60282791 376.14690852 C-27.2626971 377.76791626 -27.2626971 377.76791626 -24.8214559 378.92710245 C-19.49713663 381.6492493 -15.85444426 387.04587082 -14.03515625 392.65625 C-12.28992196 401.61319623 -12.48185871 411.26461785 -17.5625 419.08203125 C-24.52215908 426.80764902 -31.16225533 430.47601397 -41.5390625 431.078125 C-49.70426817 431.08867436 -55.70041296 428.33230738 -62.5625 424.08203125 C-62.5625 423.42203125 -62.5625 422.76203125 -62.5625 422.08203125 C-63.2225 422.08203125 -63.8825 422.08203125 -64.5625 422.08203125 C-65.38087442 420.66874996 -66.19196219 419.25124779 -67 417.83203125 C-67.45246094 417.043125 -67.90492188 416.25421875 -68.37109375 415.44140625 C-71.89935245 408.45429723 -71.4902972 399.14560242 -70.1015625 391.56640625 C-68.12454035 385.65859889 -64.09902156 380.80449086 -58.9959715 377.33919501 C-56.35592322 375.31091761 -56.35592322 375.31091761 -55.93509549 372.4243834 C-55.93338675 370.89107271 -55.93338675 370.89107271 -55.93164349 369.32678604 C-55.91820485 368.14491754 -55.90476621 366.96304904 -55.89092034 365.74536633 C-55.9015936 364.44576813 -55.91226686 363.14616992 -55.92326355 361.80718994 C-55.91695372 360.41366872 -55.908452 359.02015599 -55.89794332 357.62666011 C-55.87539568 353.7931733 -55.88401781 349.960287 -55.8976289 346.12678123 C-55.90687536 341.99451679 -55.88735931 337.8623779 -55.87130737 333.73014832 C-55.84744128 326.5694145 -55.84186516 319.40885284 -55.84865379 312.24808502 C-55.85844267 301.89481167 -55.84073759 291.54172956 -55.81628648 281.18848714 C-55.77736616 264.39176718 -55.76073213 247.5951018 -55.75805664 230.79833984 C-55.7554098 214.48027749 -55.74230217 198.16227896 -55.71508789 181.84423828 C-55.71257782 180.33588836 -55.71257782 180.33588836 -55.71001705 178.79706672 C-55.70155768 173.75251694 -55.69289225 168.70796754 -55.68412435 163.66341829 C-55.61163368 121.80296676 -55.57528754 79.94254086 -55.5625 38.08203125 C-58.97030821 39.61961066 -62.26551363 41.32006159 -65.5625 43.08203125 C-66.57409583 43.58018498 -67.58569166 44.07833872 -68.62794191 44.59158802 C-73.28748728 47.30107839 -76.0596957 49.29885754 -77.55759847 54.61110497 C-78.11326573 59.15315799 -78.00435278 63.68821668 -77.92326355 68.25463867 C-77.93219569 70.02286275 -77.94595621 71.79106791 -77.96411878 73.55922127 C-78.00001223 78.41050514 -77.96750791 83.25928231 -77.92376482 88.11041284 C-77.88857555 93.3442229 -77.91690556 98.57773522 -77.9375 103.81156921 C-77.96448682 112.87683452 -77.9512781 121.9413257 -77.91072655 131.00653076 C-77.85215477 144.11311996 -77.85426762 157.21914743 -77.87116591 170.32583094 C-77.89693541 191.59056762 -77.87366417 212.85495644 -77.81958008 234.11962891 C-77.76714913 254.77559012 -77.73779749 275.43137158 -77.73950195 296.08740234 C-77.73959899 297.36074767 -77.73969603 298.63409299 -77.73979601 299.94602454 C-77.74042525 306.33405798 -77.74150842 312.72209125 -77.74281728 319.11012459 C-77.75308747 372.10091512 -77.683781 425.09138975 -77.5625 478.08203125 C-76.78076416 478.38149658 -75.99902832 478.68096191 -75.19360352 478.98950195 C-68.29570852 481.85375732 -63.67910659 487.47482527 -60.5625 494.08203125 C-57.9217852 502.27181565 -58.61854564 512.16363404 -62.23828125 519.8984375 C-66.63963587 527.15612845 -72.98460927 531.36575718 -81 533.83203125 C-91.01200125 534.80881186 -99.49504161 533.57107386 -107.5625 527.08203125 C-114.36797066 520.50628112 -116.58789138 515.21474369 -116.875 505.70703125 C-116.68532267 496.50768085 -114.71554935 490.70076307 -108.4765625 483.90625 C-106.5625 482.08203125 -106.5625 482.08203125 -103.98132354 480.39116597 C-101.2947313 478.26737404 -101.2947313 478.26737404 -100.94150752 475.0076015 C-100.94340612 473.7879398 -100.94530472 472.5682781 -100.94726086 471.31165695 C-100.93860702 470.28664455 -100.93860702 470.28664455 -100.92977837 469.24092484 C-100.91649144 466.93985578 -100.93901228 464.64051905 -100.96122742 462.33953857 C-100.95904794 460.67791243 -100.9546717 459.01628795 -100.94828159 457.35467267 C-100.93707422 452.78005843 -100.95713817 448.20602686 -100.98217189 443.63148689 C-101.00371898 438.70172236 -100.99646054 433.77199197 -100.99266052 428.8421936 C-100.99003589 420.29816624 -101.00575331 411.75432946 -101.03384972 403.21035004 C-101.07444615 390.85714894 -101.08750299 378.50404021 -101.09378967 366.15077963 C-101.10473892 346.10958207 -101.13803021 326.06848612 -101.18530273 306.02734375 C-101.23118202 286.55664581 -101.26658192 267.08597544 -101.2878418 247.61523438 C-101.28915541 246.41551305 -101.29046903 245.21579172 -101.29182246 243.9797152 C-101.29834754 237.96120127 -101.3046661 231.94268714 -101.31088197 225.92417288 C-101.36273459 175.97672209 -101.45081702 126.02938162 -101.5625 76.08203125 C-102.98748307 77.95473628 -104.40876002 79.83007498 -105.828125 81.70703125 C-106.61993164 82.75117188 -107.41173828 83.7953125 -108.22753906 84.87109375 C-127.45404391 111.31055336 -133.86929801 146.00024446 -129.12841797 178.01318359 C-126.1450807 194.84219199 -120.92582215 211.00462134 -111.26171875 225.1875 C-106.79360818 232.79869525 -107.28845365 240.27178167 -107.375 248.89453125 C-107.37564453 250.13396484 -107.37628906 251.37339844 -107.37695312 252.65039062 C-107.42193102 261.80089329 -107.42193102 261.80089329 -108.5625 264.08203125 C-116.95740482 262.44400104 -120.84962556 255.23050035 -125.36523438 248.61523438 C-129.40230285 242.59839229 -133.24729375 236.53078861 -136.5625 230.08203125 C-137.04203125 229.18484375 -137.5215625 228.28765625 -138.015625 227.36328125 C-156.18679633 192.48931608 -158.78168247 148.49089982 -147.25 111.08203125 C-140.6887073 90.67678027 -131.63772565 72.35573897 -117.5625 56.08203125 C-117.1072998 55.55383789 -116.65209961 55.02564453 -116.18310547 54.48144531 C-97.98653033 33.57639238 -76.00272716 19.58553509 -50.5625 9.08203125 C-49.60682129 8.68419434 -49.60682129 8.68419434 -48.63183594 8.27832031 C-33.17216417 2.14003681 -16.47181 0.3792851 0 0 Z " fill="#FDFEFE" transform="translate(449.5625,223.91796875)"/>
<path d="M0 0 C1.49601495 0.10529235 2.99211258 0.209415 4.48828125 0.3125 C5.25865723 0.36664063 6.0290332 0.42078125 6.82275391 0.4765625 C9.18768134 0.62501138 11.54999561 0.72662255 13.91796875 0.8125 C24.57337431 1.2154768 34.7441332 2.48107073 45.1875 4.625 C46.12722656 4.81320313 47.06695312 5.00140625 48.03515625 5.1953125 C51.05033375 5.82955685 53.98358756 6.55673621 56.90625 7.53515625 C59.32510779 8.33856259 61.72575429 9.08011037 64.17578125 9.7734375 C78.18285826 13.73849304 78.18285826 13.73849304 84.23046875 16.73046875 C86.28675322 17.71713125 86.28675322 17.71713125 88.95703125 18.51171875 C92.69505781 19.79991412 96.16894987 21.46596461 99.6875 23.25 C100.73200317 23.77678345 100.73200317 23.77678345 101.79760742 24.31420898 C108.73565075 27.84817886 115.49760138 31.6434967 122.1875 35.625 C123.09628906 36.16511719 124.00507812 36.70523438 124.94140625 37.26171875 C137.25356896 44.83984572 148.62982792 53.77237794 159.1875 63.625 C160.37859375 64.66333984 160.37859375 64.66333984 161.59375 65.72265625 C166.60932288 70.09541046 171.27928344 74.69830369 175.8125 79.5625 C176.34601074 80.1306543 176.87952148 80.69880859 177.42919922 81.28417969 C181.1875 85.37987478 181.1875 85.37987478 181.1875 87.625 C181.8475 87.625 182.5075 87.625 183.1875 87.625 C185.13207559 89.96091763 186.95362403 92.30330312 188.75 94.75 C189.28794189 95.47703125 189.82588379 96.2040625 190.38012695 96.953125 C198.93793949 108.62968872 206.31485108 120.89275055 213.1875 133.625 C213.50992676 134.21780762 213.83235352 134.81061523 214.16455078 135.42138672 C219.24012016 144.83682023 222.87194553 154.49469814 226.1875 164.625 C226.54585937 165.69105469 226.90421875 166.75710938 227.2734375 167.85546875 C235.3367912 192.78735838 239.41104004 218.63504182 239.4375 244.8125 C239.43850708 245.50998352 239.43951416 246.20746704 239.44055176 246.92608643 C239.42261038 265.45161443 237.26808235 283.53710668 232.72021484 301.51123047 C232.36869367 302.90603813 232.02763055 304.30352866 231.69775391 305.70361328 C225.27164696 332.96181617 212.89017411 359.11336323 196.51806641 381.76367188 C195.23544549 383.5579291 193.99357168 385.37375029 192.76171875 387.203125 C186.86619383 395.87002987 180.07701185 403.36761452 172.8125 410.90576172 C170.52437055 413.32658618 168.36624634 415.85582455 166.1875 418.375 C160.97357741 424.14541679 155.01932188 428.68237903 148.83789062 433.34912109 C146.48486786 435.16818869 144.25258842 437.1212165 142 439.0625 C134.9173415 444.91707421 127.0310122 449.63237879 119.18847656 454.39355469 C117.5542703 455.39928143 115.95494467 456.46149877 114.3671875 457.5390625 C111.73534734 458.85026602 110.90778992 458.4538439 108.1875 457.625 C105.81576668 437.41296701 105.81576668 437.41296701 109.51464844 431.50537109 C113.43368282 427.54910927 118.25863023 425.10508209 123.1875 422.625 C124.76757807 421.65301258 126.33410028 420.65797352 127.875 419.625 C128.55820312 419.18027344 129.24140625 418.73554687 129.9453125 418.27734375 C134.02621876 415.269986 137.66176053 411.74745964 141.34765625 408.27734375 C143.58152114 406.19096925 145.84171502 404.20563363 148.1875 402.25 C159.88296877 392.0895615 169.79728709 379.58968706 178.19921875 366.65234375 C179.45346567 364.74263577 180.74362172 362.85560273 182.08203125 361.00390625 C189.22569923 350.97949232 194.12842284 339.80174467 199.1875 328.625 C199.50493164 327.93535156 199.82236328 327.24570312 200.14941406 326.53515625 C203.91055893 318.27573541 206.44374026 309.72516748 208.875 301 C209.16084961 299.99412842 209.44669922 298.98825684 209.74121094 297.9519043 C214.22804086 281.16837257 215.69472936 264.2874213 215.57861328 246.96826172 C215.56250277 244.125489 215.5785972 241.28413712 215.59765625 238.44140625 C215.6166072 221.89953844 214.15012474 205.56681092 209.15234375 189.73046875 C208.44370601 187.44963067 207.82474244 185.14043755 207.2578125 182.8203125 C202.35925434 162.89224869 193.53150902 143.67392651 182.1875 126.625 C181.14142578 125.04525391 181.14142578 125.04525391 180.07421875 123.43359375 C168.63766859 106.55300194 155.79051203 90.12531169 139.625 77.53125 C137.42387219 75.80985517 135.37101539 74.01197244 133.3125 72.125 C127.98490587 67.43369747 122.09900843 63.53051047 116.1875 59.625 C115.55215332 59.20250977 114.91680664 58.78001953 114.26220703 58.34472656 C106.16984894 53.00045253 98.23492511 48.48021483 89.21875 44.85546875 C86.7772222 43.86438465 84.50462479 42.80451816 82.1875 41.5625 C64.05567554 32.3053238 42.23059544 27.9599173 22.1875 25.625 C21.20523437 25.51027344 20.22296875 25.39554688 19.2109375 25.27734375 C-3.38662362 23.11504343 -26.58710763 24.11635055 -48.8125 28.625 C-49.58480957 28.7787207 -50.35711914 28.93244141 -51.15283203 29.09082031 C-62.93463248 31.45880716 -62.93463248 31.45880716 -74.21875 35.5078125 C-76.90445748 36.66460819 -79.63179912 37.65338452 -82.38525391 38.63574219 C-103.91064521 46.38959478 -124.13164763 58.14353996 -141.8125 72.625 C-142.72902344 73.33914062 -143.64554687 74.05328125 -144.58984375 74.7890625 C-182.6416685 104.81561001 -208.9346958 150.41765017 -219.0859375 197.44921875 C-219.8125 200.625 -219.8125 200.625 -220.8125 202.625 C-226.33851544 234.30332581 -226.64039196 269.75869293 -216.8125 300.625 C-216.35037109 302.22214844 -216.35037109 302.22214844 -215.87890625 303.8515625 C-211.78328597 317.82085656 -206.46369264 330.89288059 -199.75 343.79248047 C-198.37606515 346.47809374 -197.10638545 349.21260537 -195.8125 351.9375 C-193.27583147 357.0177115 -190.2251714 361.46757033 -186.80078125 365.98828125 C-184.96506635 368.42267723 -183.2599179 370.90582805 -181.5625 373.4375 C-177.26067749 379.62816871 -172.27885217 385.24124606 -167.31201172 390.89990234 C-166.25593387 392.11485611 -165.21171505 393.34016896 -164.17626953 394.57275391 C-163.64501465 395.20487793 -163.11375977 395.83700195 -162.56640625 396.48828125 C-162.08631104 397.06489502 -161.60621582 397.64150879 -161.11157227 398.2355957 C-159.84152503 399.7554487 -159.84152503 399.7554487 -157.8125 400.625 C-157.8125 401.285 -157.8125 401.945 -157.8125 402.625 C-157.26722656 402.84542969 -156.72195313 403.06585937 -156.16015625 403.29296875 C-153.0642525 405.04954642 -150.76552816 407.4599361 -148.25 409.9375 C-141.46110944 416.43890335 -133.92452736 421.55056262 -126.09765625 426.71484375 C-116.25931847 433.28454459 -116.25931847 433.28454459 -114.8125 437.625 C-114.58876128 440.62121866 -114.62736143 443.62125668 -114.625 446.625 C-114.61275391 447.44484375 -114.60050781 448.2646875 -114.58789062 449.109375 C-114.58595703 449.89828125 -114.58402344 450.6871875 -114.58203125 451.5 C-114.57792236 452.21929688 -114.57381348 452.93859375 -114.56958008 453.6796875 C-114.8125 455.625 -114.8125 455.625 -116.8125 458.625 C-139.76180923 455.3644424 -169.31372871 425.01130071 -183.84375 407.8125 C-184.97710789 406.55321346 -186.13691746 405.31474768 -187.36132812 404.14379883 C-192.09071122 399.62063884 -195.71284049 394.76305597 -199.3125 389.3125 C-200.45004502 387.6168682 -201.58806089 385.92155217 -202.7265625 384.2265625 C-203.2618457 383.42508789 -203.79712891 382.62361328 -204.34863281 381.79785156 C-206.08106676 379.22636022 -207.87607616 376.7038218 -209.6875 374.1875 C-216.82704716 363.9605811 -222.04935603 353.11461758 -226.9296875 341.6875 C-227.68092032 339.9324074 -228.44815647 338.18417868 -229.21875 336.4375 C-238.10206978 315.93753128 -243.21195246 294.75280437 -245.8125 272.625 C-245.92368164 271.68672363 -246.03486328 270.74844727 -246.14941406 269.78173828 C-247.72948407 255.91249688 -247.95707476 242.53042064 -246.8125 228.625 C-246.7398291 227.71911133 -246.6671582 226.81322266 -246.59228516 225.87988281 C-245.28758857 210.05104791 -243.22481004 194.92969166 -238.8125 179.625 C-238.36583984 178.05492187 -238.36583984 178.05492187 -237.91015625 176.453125 C-228.63488047 145.08438118 -214.23441353 117.1689145 -193.8125 91.625 C-193.32918213 90.97394287 -192.84586426 90.32288574 -192.34790039 89.65209961 C-187.42170106 83.08164539 -181.82438663 77.33865155 -176 71.5625 C-175.03677234 70.59213131 -174.07387967 69.62142999 -173.11132812 68.65039062 C-172.20189453 67.74353516 -171.29246094 66.83667969 -170.35546875 65.90234375 C-169.53071045 65.07984131 -168.70595215 64.25733887 -167.85620117 63.40991211 C-165.8125 61.625 -165.8125 61.625 -163.8125 61.625 C-163.8125 60.965 -163.8125 60.305 -163.8125 59.625 C-161.78805694 57.84943899 -159.75948335 56.19704437 -157.625 54.5625 C-156.98788086 54.07007813 -156.35076172 53.57765625 -155.69433594 53.0703125 C-135.52439343 37.6056909 -113.75678749 24.37111699 -89.8125 15.625 C-88.60078125 15.16609375 -87.3890625 14.7071875 -86.140625 14.234375 C-64.83068167 6.31122003 -42.83513877 1.63888462 -20.1171875 0.8359375 C-17.28962809 0.73035842 -14.54640049 0.48016102 -11.74609375 0.078125 C-7.70464499 -0.38742421 -4.05371606 -0.29438174 0 0 Z " fill="#FDFEFE" transform="translate(456.8125,137.375)"/>
<path d="M0 0 C1.2065625 1.12535156 1.2065625 1.12535156 2.4375 2.2734375 C16.56444796 15.84539821 27.57127385 32.94080991 37 50 C37.65742187 51.17175781 37.65742187 51.17175781 38.328125 52.3671875 C42.49659308 60.20285217 45.23264543 68.59563433 48 77 C48.39735352 78.18891846 48.39735352 78.18891846 48.80273438 79.40185547 C52.90623361 91.80425963 55.51416593 104.02516845 57 117 C57.09498779 117.77206787 57.18997559 118.54413574 57.2878418 119.33959961 C61.29873723 154.59626174 56.69773028 192.94411712 41 225 C40.20627208 226.81159828 39.41465508 228.6241227 38.625 230.4375 C35.84156181 236.55236578 32.49370655 242.26790137 29 248 C28.46632813 248.89460938 27.93265625 249.78921875 27.3828125 250.7109375 C19.68837902 263.26501318 10.14090539 274.37619436 0 285 C-1.175625 286.2375 -1.175625 286.2375 -2.375 287.5 C-7.24517307 292.50545565 -12.34651346 296.90341165 -18 301 C-18.80050781 301.59425781 -19.60101562 302.18851563 -20.42578125 302.80078125 C-21.21339844 303.36152344 -22.00101563 303.92226563 -22.8125 304.5 C-23.52019531 305.0053125 -24.22789062 305.510625 -24.95703125 306.03125 C-27.47266068 307.22412973 -28.40852679 306.77585376 -31 306 C-31.11633933 301.77106532 -31.18729952 297.54254326 -31.25 293.3125 C-31.28351563 292.11431641 -31.31703125 290.91613281 -31.3515625 289.68164062 C-31.36445312 288.52470703 -31.37734375 287.36777344 -31.390625 286.17578125 C-31.4220459 284.58117065 -31.4220459 284.58117065 -31.45410156 282.9543457 C-30.66601537 277.82712474 -27.09113236 274.88579823 -23.25 271.6875 C5.2582048 247.19156106 23.90398663 211.59579225 31 175 C31.29197266 173.69289063 31.29197266 173.69289063 31.58984375 172.359375 C33.08335278 165.60042903 33.70748399 158.91154114 34 152 C34.05099854 150.80697266 34.05099854 150.80697266 34.10302734 149.58984375 C34.93336917 126.96408281 31.75732719 105.27396119 24 84 C23.59910156 82.84757813 23.19820312 81.69515625 22.78515625 80.5078125 C16.41849271 62.97269204 7.05561706 47.00276257 -4.8203125 32.63671875 C-6 31 -6 31 -6 29 C-6.66 29 -7.32 29 -8 29 C-9.26953125 27.70703125 -9.26953125 27.70703125 -10.8125 25.8125 C-37.54140065 -5.38040262 -75.48579084 -25.66965482 -116 -32 C-116.82371094 -32.17660156 -117.64742187 -32.35320312 -118.49609375 -32.53515625 C-144.55873842 -37.37361914 -172.11716138 -33.14665302 -197 -25 C-197.65967773 -24.78504883 -198.31935547 -24.57009766 -198.99902344 -24.34863281 C-220.02385156 -17.34733365 -242.6100562 -5.6684175 -258.25390625 10.30078125 C-260 12 -260 12 -262 12 C-262 12.66 -262 13.32 -262 14 C-263.6796875 15.62109375 -263.6796875 15.62109375 -265.875 17.4375 C-268.46193722 19.58400884 -270.11184374 21.16776562 -272 24 C-272.66 24 -273.32 24 -274 24 C-274.2578125 24.57105469 -274.515625 25.14210938 -274.78125 25.73046875 C-276.11771929 28.21921445 -277.67967262 30.15272633 -279.5 32.3125 C-288.23166625 43.11635516 -295.17875868 54.57303843 -301.0949707 67.12109375 C-301.70571316 68.38903925 -302.33772066 69.64692973 -302.98901367 70.89453125 C-305.72840569 76.1453072 -307.71951464 81.50180912 -309.5625 87.125 C-309.86696045 88.04861328 -310.1714209 88.97222656 -310.48510742 89.92382812 C-312.83980342 97.21202172 -314.72612064 104.4389096 -316 112 C-316.16701416 112.88929199 -316.33402832 113.77858398 -316.50610352 114.69482422 C-318.10987021 123.87776251 -318.36026949 132.83489504 -318.3125 142.125 C-318.31001251 142.89856842 -318.30752502 143.67213684 -318.30496216 144.46914673 C-318.24660941 156.21047664 -317.85602443 167.55687796 -315 179 C-314.77425293 179.91716797 -314.54850586 180.83433594 -314.31591797 181.77929688 C-305.29840951 217.33769904 -287.54060542 246.08621543 -261.359375 271.5703125 C-260.49828125 272.41335938 -259.6371875 273.25640625 -258.75 274.125 C-257.87859375 274.97320313 -257.0071875 275.82140625 -256.109375 276.6953125 C-251.91941512 281.27323162 -252.81642286 286.63925327 -252.8125 292.5 C-252.80025391 293.46292969 -252.78800781 294.42585938 -252.77539062 295.41796875 C-252.77345703 296.34222656 -252.77152344 297.26648438 -252.76953125 298.21875 C-252.76542236 299.06373047 -252.76131348 299.90871094 -252.75708008 300.77929688 C-253 303 -253 303 -255 306 C-260.89566275 305.6377473 -263.97204464 303.16374678 -268.3125 299.5 C-268.99892578 298.93047607 -269.68535156 298.36095215 -270.39257812 297.77416992 C-281.90151096 288.04235172 -293.19246425 277.27537981 -302 265 C-303.06541016 263.53240234 -303.06541016 263.53240234 -304.15234375 262.03515625 C-336.63599152 216.22488376 -349.52272563 159.94666354 -340.1015625 104.3046875 C-333.63718869 71.31536876 -318.81330844 41.21022935 -298 15 C-297.35949707 14.18474854 -297.35949707 14.18474854 -296.70605469 13.35302734 C-291.26329342 6.43401598 -291.26329342 6.43401598 -289 4 C-288.34 4 -287.68 4 -287 4 C-286.78601563 3.4534375 -286.57203125 2.906875 -286.3515625 2.34375 C-284.5286601 -0.81735243 -282.04882569 -3.07062247 -279.375 -5.5 C-278.80015869 -6.02335937 -278.22531738 -6.54671875 -277.63305664 -7.0859375 C-247.64168173 -33.92687359 -209.17692318 -52.46966445 -169 -57 C-168.12682129 -57.10086914 -167.25364258 -57.20173828 -166.35400391 -57.30566406 C-103.39980361 -64.26479856 -45.67037328 -43.22374614 0 0 Z " fill="#FDFEFE" transform="translate(595,239)"/>
<path d="M0 0 C0.66 0.33 1.32 0.66 2 1 C-6.58 9.58 -15.16 18.16 -24 27 C-24 23.45595664 -23.39010515 22.89732095 -21.125 20.3125 C-20.59132813 19.68988281 -20.05765625 19.06726563 -19.5078125 18.42578125 C-18 17 -18 17 -16 17 C-15.59793335 16.10220825 -15.59793335 16.10220825 -15.18774414 15.1862793 C-13.98708191 12.97622169 -12.85241274 11.6916635 -10.99609375 10.01953125 C-10.42052734 9.49552734 -9.84496094 8.97152344 -9.25195312 8.43164062 C-8.65318359 7.89732422 -8.05441406 7.36300781 -7.4375 6.8125 C-6.83486328 6.26658203 -6.23222656 5.72066406 -5.61132812 5.15820312 C-4.07726459 3.76876511 -2.5389578 2.38401511 -1 1 C-0.67 0.67 -0.34 0.34 0 0 Z " fill="#F0FAFC" transform="translate(324,226)"/>
<path d="M0 0 C0.66 0.33 1.32 0.66 2 1 C-2 5 -6 9 -10 13 C-8.51082643 8.08572721 -5.55813338 4.59680874 -2 1 C-1.34 0.67 -0.68 0.34 0 0 Z " fill="#F2FBFC" transform="translate(485,601)"/>
<path d="M0 0 C0 3 0 3 -2.1875 5.48046875 C-3.115625 6.37378906 -4.04375 7.26710938 -5 8.1875 C-5.928125 9.08855469 -6.85625 9.98960937 -7.8125 10.91796875 C-8.534375 11.60503906 -9.25625 12.29210937 -10 13 C-10 8.83248505 -7.76127698 6.85829482 -5 4 C-3.36927384 2.62294236 -1.7133562 1.27277889 0 0 Z " fill="#F0FAFC" transform="translate(393,599)"/>
<path d="M0 0 C0 3 0 3 -1.75 5.04296875 C-2.4925 5.75066406 -3.235 6.45835937 -4 7.1875 C-4.7425 7.90292969 -5.485 8.61835937 -6.25 9.35546875 C-6.8275 9.89816406 -7.405 10.44085937 -8 11 C-8.33 10.34 -8.66 9.68 -9 9 C-6.31941902 5.42589203 -3.57410797 2.68058098 0 0 Z " fill="#F1FBFC" transform="translate(573,510)"/>
</svg>
